# xmcd
#
# Track frame offsets: 
#        150
#        10815
#        20658
#        29438
#        40385
#        50163
#        62685
#        75598
#        88290
#        99475
#        109580
#        119485
#        131568
#        147300
#        167155
#        178118
#        192605
#        203835
#        216945
#        228248
#        242718
#        253685
#        265835
#        278053
#        288073
#        301230
#
# Disc length: 4191 seconds
#
# Revision: 1
# Processed by: cddbd v1.5.2PL0 Copyright (c) Steve Scherf et al.
# Submitted via: ExactAudioCopy v0.95b4
#
DISCID=7f105d1a
DTITLE=Hooker, John Lee  - The Vee-Jay Years - CD 5
DYEAR=1900
DGENRE=Blues
TTITLE0=Old time shimmy
TTITLE1=Onions
TTITLE2=You know I love you
TTITLE3=Send me your pillow
TTITLE4=Big soul
TTITLE5=Frisco blues
TTITLE6=She shot me down
TTITLE7=Take a look at yourself
TTITLE8=Good rocking mama
TTITLE9=I love her
TTITLE10=No one told me
TTITLE11=Don't look back
TTITLE12=One way ticket
TTITLE13=Half a stranger
TTITLE14=Bottle up and go
TTITLE15=My grinding mill
TTITLE16=I want to ramble
TTITLE17=Sadie Mae
TTITLE18=This is hip
TTITLE19=Poor me
TTITLE20=I want to shout
TTITLE21=Love is a burning t,hing
TTITLE22=I want to hug you
TTITLE23=I'm leaving baby
TTITLE24=Birmingham blues
TTITLE25=Don't look back
EXTD=
EXTT0=
EXTT1=
EXTT2=
EXTT3=
EXTT4=
EXTT5=
EXTT6=
EXTT7=
EXTT8=
EXTT9=
EXTT10=
EXTT11=
EXTT12=
EXTT13=
EXTT14=
EXTT15=
EXTT16=
EXTT17=
EXTT18=
EXTT19=
EXTT20=
EXTT21=
EXTT22=
EXTT23=
EXTT24=
EXTT25=
PLAYORDER=
